# xmcd
#
# Track frame offsets:
# 150
# 29771
# 47379
# 67620
# 88757
# 107596
# 135205
# 154730
#
# Disc length: 2453 seconds
#
#
# Revision: 0
# Processed by: cddbd v1.5.2PL0 Copyright (c) Steve Scherf et al.
# Submitted via: FreeRIP 2.96 
#
DISCID=57099308
DTITLE=The HAPPY THREE - The HAPPY THREE - One takes no cuts
DYEAR=2012
DGENRE=Rock
TTITLE0=Always up for it
TTITLE1=That's why I like to play in C
TTITLE2=Groovin' with R.B.
TTITLE3=Fischwoog Blues
TTITLE4=Dairy Land
TTITLE5=Top Gun
TTITLE6=Taubes T
TTITLE7=Ain't no honey lickin'
EXTD=Christoph Schnell - drums\nRalf Bereswill - organ\nEndi Caspar - guitars
EXTT0=
EXTT1=
EXTT2=
EXTT3=
EXTT4=
EXTT5=
EXTT6=
EXTT7=
PLAYORDER=
